<svg xmlns="http://www.w3.org/2000/svg" viewBox="0 0 970 300" preserveAspectRatio="xMidYMid meet" role="img" aria-label="柯 Sammy">
  <defs>
    <mask id="dry-ink" x="0" y="0" width="970" height="300" maskUnits="userSpaceOnUse">
      <rect width="970" height="300" fill="white"/>
      <path d="M48 101 C86 86 130 82 165 93" fill="none" stroke="black" stroke-width="5" stroke-linecap="round" opacity=".5"/>
      <path d="M73 165 C93 158 120 161 142 172" fill="none" stroke="black" stroke-width="4" stroke-linecap="round" opacity=".45"/>
      <path d="M191 63 C230 54 286 58 326 72" fill="none" stroke="black" stroke-width="5" stroke-linecap="round" opacity=".48"/>
      <path d="M203 151 C228 144 266 145 296 156" fill="none" stroke="black" stroke-width="4" stroke-linecap="round" opacity=".48"/>
      <path d="M351 90 C379 78 417 82 442 99" fill="none" stroke="black" stroke-width="5" stroke-linecap="round" opacity=".45"/>
      <path d="M492 166 C525 158 564 160 592 174" fill="none" stroke="black" stroke-width="4" stroke-linecap="round" opacity=".45"/>
      <path d="M765 135 C799 128 837 131 866 145" fill="none" stroke="black" stroke-width="4" stroke-linecap="round" opacity=".43"/>
      <path d="M895 223 C915 214 936 218 950 231" fill="none" stroke="black" stroke-width="4" stroke-linecap="round" opacity=".48"/>
    </mask>
  </defs>
  <g fill="none" stroke="#050505" stroke-linecap="round" stroke-linejoin="round" mask="url(#dry-ink)">
    <path d="M69 45 C63 92 62 156 52 238" stroke-width="30"/>
    <path d="M23 102 C65 82 120 74 157 83" stroke-width="24"/>
    <path d="M76 139 C58 180 38 211 19 234" stroke-width="22"/>
    <path d="M90 139 C119 151 143 171 161 203" stroke-width="20"/>
    <path d="M179 65 C228 51 295 52 337 67" stroke-width="23"/>
    <path d="M276 79 C278 126 275 184 270 244" stroke-width="25"/>
    <path d="M181 121 C214 111 253 108 285 115" stroke-width="19"/>
    <path d="M177 153 C206 144 235 145 252 154 C248 177 244 198 239 221 C216 214 194 213 173 219" stroke-width="20"/>
    <path d="M315 124 C323 159 320 195 304 230" stroke-width="19"/>
    <path d="M307 187 C331 185 349 194 361 213" stroke-width="18"/>
    <path d="M330 55 C358 42 390 46 413 66" stroke-width="20"/>
    <path d="M392 106 C410 96 427 98 441 112" stroke-width="18"/>
    <path d="M452 109 C462 148 462 184 452 224" stroke-width="23"/>
  </g>
  <g fill="#050505" stroke="#050505" stroke-linejoin="round" stroke-width="9" mask="url(#dry-ink)" transform="translate(115 0)">
    <path d="M374.4 208.9 C367.4 208.9 361.9 208.3 357.9 207.2 C353.8 206.1 351.8 204.5 351.8 202.5 C351.8 201.4 352.6 199.7 354.1 197.1 C355.7 194.6 356.9 193.4 357.7 193.4 C359 193.4 359.6 193.7 359.6 194.2 C359.6 194.5 359.5 194.9 359.1 195.3 C358.7 195.7 358.5 196.2 358.5 196.6 C358.5 196.9 359.2 197.4 360.5 198 C361.9 198.7 363.9 199.3 366.7 199.8 C369.5 200.3 372.8 200.6 376.8 200.6 C383.1 200.6 388.6 199.4 393.3 196.9 C398.1 194.5 401.7 191.4 404.3 187.6 C406.8 183.9 408.1 180.3 408.1 176.7 C408.1 172.2 405.9 168.2 401.5 164.9 C397.1 161.6 389.9 158.5 380.1 155.5 C370.6 152.4 363.3 149.8 358.1 147.7 C352.9 145.6 348.8 143.1 345.6 140 C342.4 137 340.8 133.3 340.8 128.9 C340.8 123 344.1 117.3 350.7 111.5 C357.3 105.8 365.5 101.2 375.2 97.6 C384.9 94.1 393.9 92.3 402.2 92.3 C406.5 92.3 408.8 93.1 409.1 94.8 C409.4 96.5 409.6 98.5 409.6 100.6 C409.6 102.2 409 103 407.8 103 C407.3 103 406.7 102.8 406 102.4 C405.3 102.1 404.7 101.8 404.1 101.5 C403.5 101.3 402.7 101.1 401.9 100.9 C401 100.7 399.8 100.6 398.2 100.6 C392.7 100.6 386 102 378.2 104.9 C370.4 107.8 363.7 111.4 358 115.6 C352.3 119.9 349.4 124 349.4 127.9 C349.4 131.1 350.7 133.9 353.3 136.3 C355.9 138.6 359.4 140.6 363.8 142.3 C368.2 143.9 374.4 146 382.4 148.4 C394.1 151.8 402.8 155.7 408.4 159.9 C414 164.2 416.8 169.4 416.8 175.6 C416.8 181 415 186.2 411.4 191.4 C407.8 196.6 402.8 200.8 396.4 204 C389.9 207.3 382.6 208.9 374.4 208.9M499.8 197.7 C499.8 199 499.2 200.5 498.2 202.1 C497.1 203.8 496 204.6 495 204.6 C493.2 204.6 491.8 203.5 490.8 201.2 C489.8 199 489.4 196.4 489.4 193.4 C489.4 190.8 489.5 183.1 489.8 170.3 L490 164.3 C490 161.8 489.4 160.1 488.1 159 C483.3 167.1 478.8 174.1 474.6 180.1 C470.5 186.1 465.2 191.7 458.8 197 C452.4 202.3 445.7 204.9 438.6 204.9 C435.2 204.9 432.6 203.8 430.7 201.7 C428.9 199.6 427.9 196.8 427.9 193.4 C427.9 189.1 429.8 183.3 433.7 175.9 C437.5 168.5 442.4 160.9 448.4 153.3 C454.4 145.7 460.4 139.4 466.3 134.5 C470.3 131.3 473.4 129.1 475.8 128 C478.1 126.9 480.2 126.3 482 126.3 C483.7 126.3 485.5 126.9 487.3 127.9 C489.1 129 490.6 130.5 491.9 132.4 C493.2 134.3 493.8 136.5 493.8 139 C493.8 142.3 492.9 145.4 491.1 148.4 L493.8 147.6 C495 147.6 495.7 149.1 495.9 151.9 C496 153.7 496.2 157.1 496.3 162.3 C496.5 167.6 496.6 171.9 496.7 175.3 C496.8 178.8 496.9 182.2 497 185.5 C497.2 188.9 497.3 191.5 497.4 193.4 C497.5 194.1 497.9 194.9 498.6 195.7 C499.4 196.5 499.8 197.2 499.8 197.7M485.8 152.7 C487.1 149.5 487.8 146.1 487.8 142.3 C487.8 140.1 487.1 138.2 485.8 136.5 C484.4 134.9 482.6 134 480.4 134 C477.7 134 474.3 135.8 470.2 139.5 C465.4 143.5 460.3 148.9 455 155.7 C449.6 162.5 445.2 169.2 441.7 175.8 C438.2 182.4 436.4 187.6 436.4 191.5 C436.4 194.7 437.9 196.3 440.9 196.3 C446.6 196.3 452.2 194.1 457.5 189.9 C462.9 185.6 467.6 180.5 471.8 174.6 C476.1 168.7 480.7 161.4 485.8 152.7M612.1 206.7 C610.1 206.7 609.2 205.7 609.2 203.8 C609.2 182.2 608.5 165.7 607.1 154.3 C605.7 142.8 603.3 137.1 599.9 137.1 C594.1 137.1 585.7 157.2 574.6 197.4 L574.6 197.5 C574.6 198.8 574.2 199.9 573.3 200.8 C572.5 201.7 571.4 202.2 570 202.2 C568.1 202.2 567.1 201.2 567.1 199.3 C567.1 195 567.3 188.4 567.7 179.5 C568.2 169.4 568.4 161.5 568.4 155.8 C568.4 147.8 568.1 142.1 567.7 138.7 C567.2 135.4 566.1 133.7 564.5 133.7 C560.9 133.7 556.3 140.3 550.8 153.6 C545.2 166.9 539.4 182.6 533.3 200.6 L531.9 204.7 C531.5 205.8 530.9 206.7 530.1 207.5 C529.3 208.2 528.4 208.6 527.4 208.6 C526.1 208.6 525.3 208.5 524.9 208.3 C524.4 208.1 524.2 207.4 524.1 206.3 C523.5 201.1 523.1 194.1 522.8 185.4 C522.6 183.1 522.4 179.5 522.1 174.3 C521.1 156.3 520.1 144.1 519.3 137.8 C518.4 131.4 518 127.9 518 127.1 C518 126.3 518.4 125.3 519.3 124.1 C520.1 122.9 520.9 122.3 521.7 122.3 C523.4 122.3 524.8 123.6 525.8 126 C526.4 127.2 526.9 131.9 527.6 140.1 C528.2 148.3 528.8 158.5 529.2 170.7 L530 195.1 C535.8 177 541.9 160.6 548.2 145.8 C554.5 131 560.3 123.6 565.5 123.6 C569 123.6 571.4 126.2 572.7 131.3 C574 136.4 574.6 143.8 574.6 153.5 C574.6 158.7 574.5 166 574.3 175.6 L574.1 183 C578.5 167.7 582.9 154.9 587.2 144.6 C591.5 134.2 595.8 129.1 600.2 129.1 C611.2 129.1 616.7 153.4 616.7 202 C616.7 203.3 616.3 204.4 615.4 205.3 C614.6 206.2 613.4 206.7 612.1 206.7M731.9 206.7 C730 206.7 729 205.7 729 203.8 C729 182.2 728.3 165.7 726.9 154.3 C725.6 142.8 723.2 137.1 719.7 137.1 C714 137.1 705.6 157.2 694.5 197.4 L694.5 197.5 C694.5 198.8 694 199.9 693.2 200.8 C692.3 201.7 691.2 202.2 689.8 202.2 C687.9 202.2 686.9 201.2 686.9 199.3 C686.9 195 687.2 188.4 687.6 179.5 C688 169.4 688.2 161.5 688.2 155.8 C688.2 147.8 688 142.1 687.5 138.7 C687 135.4 686 133.7 684.4 133.7 C680.8 133.7 676.2 140.3 670.6 153.6 C665.1 166.9 659.3 182.6 653.2 200.6 L651.7 204.7 C651.3 205.8 650.7 206.7 649.9 207.5 C649.1 208.2 648.2 208.6 647.3 208.6 C646 208.6 645.1 208.5 644.7 208.3 C644.3 208.1 644 207.4 643.9 206.3 C643.4 201.1 642.9 194.1 642.6 185.4 C642.4 183.1 642.2 179.5 642 174.3 C640.9 156.3 640 144.1 639.1 137.8 C638.2 131.4 637.8 127.9 637.8 127.1 C637.8 126.3 638.2 125.3 639.1 124.1 C640 122.9 640.8 122.3 641.5 122.3 C643.2 122.3 644.6 123.6 645.7 126 C646.2 127.2 646.8 131.9 647.4 140.1 C648.1 148.3 648.6 158.5 649 170.7 L649.8 195.1 C655.7 177 661.8 160.6 668.1 145.8 C674.4 131 680.1 123.6 685.3 123.6 C688.9 123.6 691.3 126.2 692.5 131.3 C693.8 136.4 694.5 143.8 694.5 153.5 C694.5 158.7 694.4 166 694.1 175.6 L694 183 C698.4 167.7 702.7 154.9 707 144.6 C711.3 134.2 715.7 129.1 720.1 129.1 C731 129.1 736.5 153.4 736.5 202 C736.5 203.3 736.1 204.4 735.3 205.3 C734.4 206.2 733.3 206.7 731.9 206.7M806.6 148.9 C805.3 158.3 804.7 163.6 804.5 164.7 C803.2 177.9 802.2 187.9 801.6 194.7 C801 201.6 800.7 207.8 800.7 213.4 C800.7 218 801.1 221.6 801.7 224.3 C802.4 226.9 803.2 229 804 230.6 C804.8 232.1 805.2 233.1 805.2 233.4 C805.2 234.3 804.3 235.2 802.6 235.9 C800.9 236.7 799.2 237.1 797.3 237.1 C796 237.1 794.9 235.2 794.1 231.5 C793.3 227.7 792.9 221.9 792.9 214 C792.9 208.1 793.5 200 794.6 189.9 L797 167.8 C794.1 173.3 790.6 178.6 786.4 183.7 C782.2 188.8 777.8 191.3 773.3 191.3 C769.2 191.3 765.5 187.7 762.1 180.4 C758.8 173.2 756.3 165 754.4 155.8 C752.5 146.6 751.6 139.9 751.6 135.6 C751.6 133 752.4 131.6 754 131.6 C756.3 131.6 757.8 133.8 758.5 138.2 C762.5 167.8 768.2 182.7 775.4 182.7 C778.3 182.7 780.8 181.5 783 179.2 C785.2 176.9 787.8 173.4 790.8 168.6 C792.2 166.3 793.7 163.4 795.3 159.6 C796.9 155.9 798.1 152.8 798.9 150.3 L800.1 134.2 C800.3 131.7 800.6 130 801 129 C801.5 128 802.3 127.5 803.6 127.5 C804.7 127.5 805.7 128.1 806.8 129.3 C807.9 130.5 808.4 131.7 808.4 132.9 C808.4 135.4 807.8 140.7 806.6 148.9"/>
  </g>
  <g fill="#050505">
    <path d="M51 44 L81 20 L93 56 Z"/>
    <path d="M10 102 L36 85 L31 118 Z"/>
    <path d="M168 63 L195 46 L192 77 Z"/>
    <path d="M303 231 C326 234 346 242 365 255 C339 262 314 258 297 244 Z"/>
    <path d="M346 118 C333 110 322 103 314 96 C325 98 339 104 352 115 Z"/>
    <path d="M803 232 C824 235 843 245 856 260 C831 266 809 257 795 240 Z"/>
  </g>
</svg>
